Coordinates
version=1
nRows=13
nColumns=34
inDegrees=yes

Units are S.I. units (second, meters, Newtons, ...)
If the header above contains a line with 'inDegrees', this indicates whether rotational values are in degrees (yes) or radians (no).

endheader
time	pelvis_tilt	pelvis_list	pelvis_rotation	pelvis_tx	pelvis_ty	pelvis_tz	hip_flexion_r	hip_adduction_r	hip_rotation_r	knee_angle_r	ankle_angle_r	subtalar_angle_r	mtp_angle_r	hip_flexion_l	hip_adduction_l	hip_rotation_l	knee_angle_l	ankle_angle_l	subtalar_angle_l	mtp_angle_l	lumbar_extension	lumbar_bending	lumbar_rotation	arm_flex_r	arm_add_r	arm_rot_r	elbow_flex_r	pro_sup_r	arm_flex_l	arm_add_l	arm_rot_l	elbow_flex_l	pro_sup_l
      5.48333330	    -24.07993933	     28.26963974	    -39.38099966	      2.12731558	      0.93430682	      0.01509038	     62.97497974	      1.26702807	     -4.72490385	     17.41496222	     -3.66174393	    -20.99216093	      0.00000000	     59.66541667	      3.86999530	      0.22431806	     28.96949729	      6.01597612	    -26.74058278	      0.00000000	    -43.42776730	      5.71439747	     -0.79804579	     36.62285281	      5.36622879	     15.08077019	     37.04624963	    101.33764734	     48.23931740	      6.41285938	     48.30042648	     24.55423292	     64.34773169
      5.50000000	    -23.37581799	     28.70605521	    -40.37290841	      2.12903202	      0.93406596	      0.01505714	     62.92564396	      1.08460318	     -4.88481150	     17.70792745	     -3.35410113	    -21.12034539	      0.00000000	     59.05269199	      4.16393015	     -0.07850373	     28.54680078	      6.37982388	    -26.97279969	      0.00000000	    -43.71688407	      5.36257653	     -0.91144726	     36.67480762	      5.24521067	     15.32840184	     37.33685600	    101.22208181	     48.28941564	      6.22208874	     48.89020770	     24.70459573	     64.37354033
      5.51666670	    -23.16111061	     29.02009124	    -40.99967947	      2.13005248	      0.93357619	      0.01549201	     63.07435987	      1.02884168	     -5.46129454	     17.89419176	     -3.19962008	    -21.47673168	      0.00000000	     58.86183314	      4.24837373	     -0.14631619	     28.29971162	      6.61153022	    -27.16261077	      0.00000000	    -43.69812247	      5.46643269	     -0.84537290	     36.69221135	      5.17244626	     15.36977412	     37.38934969	    101.20378963	     48.04359219	      6.14089066	     49.00101607	     24.66276527	     64.37791216
      5.53333330	    -22.85465052	     29.30188409	    -41.68628711	      2.13474941	      0.93291822	      0.01643145	     63.04621822	      0.87804797	     -6.10646680	     18.08495653	     -3.01272023	    -21.94615665	      0.00000000	     58.62042673	      4.32473114	     -0.26641574	     28.19671175	      6.81424677	    -27.42289359	      0.00000000	    -43.64729320	      5.56324293	     -0.90037468	     36.54928678	      5.00061995	     15.43006850	     37.43710974	    101.18662589	     47.62617579	      6.11710949	     49.12954310	     24.61277804	     64.38506724
      5.55000000	    -22.10346690	     29.67111868	    -42.46937489	      2.13133806	      0.93532653	      0.01640054	     63.00530560	      0.59986252	     -5.89248229	     18.39449889	     -3.60140499	    -23.85190421	      0.00000000	     58.15367709	      4.71382807	     -0.29108917	     27.95674554	      6.33860871	    -28.45112442	      0.00000000	    -43.97139577	      5.19359680	     -1.01551863	     36.89817543	      4.90474242	     16.17969761	     37.88311087	    101.00929724	     47.86555563	      6.00004777	     49.79884506	     24.56999762	     64.37413099
      5.56666670	    -21.81676836	     29.96712128	    -42.82703717	      2.13485851	      0.93468865	      0.01787551	     63.11933655	      0.25823743	     -6.38735060	     18.70951420	     -3.55272664	    -24.54183916	      0.00000000	     58.01498673	      5.00528213	     -0.07038069	     27.92613603	      6.50412990	    -28.76736979	      0.00000000	    -43.91093210	      5.32513605	     -0.99127695	     37.00180718	      4.72815662	     16.19671167	     37.84711121	    100.94873888	     47.62731975	      6.09309298	     49.89604582	     24.50162273	     64.35619255
      5.58333330	    -21.44112228	     30.15873863	    -43.20566103	      2.13324519	      0.93644515	      0.01947556	     62.99547339	      0.02815857	     -6.64003252	     18.68811693	     -4.44546027	    -26.60275949	      0.00000000	     57.74390421	      5.19909180	      0.12276875	     27.81089517	      5.91457852	    -29.52813525	      0.00000000	    -43.95414912	      5.25239566	     -1.00609177	     37.36869301	      4.71009726	     16.28435038	     37.68638645	    100.66454455	     47.60827699	      6.14303452	     49.98906581	     24.01201362	     64.21145478
      5.60000000	    -21.17616399	     30.33029242	    -43.53626345	      2.13869122	      0.93547987	      0.02376377	     62.75199964	     -0.23116764	     -7.44367418	     18.65779112	     -4.23928684	    -27.05122072	      0.00000000	     57.39720704	      5.22586023	     -0.00675576	     27.72988273	      5.96341665	    -29.60230344	      0.00000000	    -43.74367880	      5.22517534	     -1.02444729	     37.23575533	      4.48225712	     16.24030574	     37.63393838	    100.63940072	     47.17956486	      6.07456105	     50.01745468	     23.90844330	     64.20182341
      5.61666670	    -20.91340549	     30.44598124	    -43.61231591	      2.13466024	      0.93800570	      0.02460168	     62.61966002	     -0.52725242	     -8.27668931	     18.65302342	     -4.06855161	    -27.50012737	      0.00000000	     57.06397388	      5.36818743	     -0.08161782	     27.53089011	      5.90321929	    -29.53630704	      0.00000000	    -43.66954760	      5.09910100	     -1.00399309	     37.31402758	      4.31028690	     16.18037836	     37.62977288	    100.61476577	     47.16513037	      5.93860043	     49.98026236	     23.82471095	     64.18613821
      5.63333330	    -20.19939373	     29.97695739	    -43.70919352	      2.13579283	      0.93949583	      0.02759487	     61.68712905	     -0.76360138	     -9.05065612	     18.64257517	     -4.09443164	    -27.93430820	      0.00000000	     55.86076016	      5.50020640	     -0.01382341	     27.03364673	      5.74337762	    -29.08619784	      0.00000000	    -44.29972690	      5.40391206	     -1.15847911	     37.52024686	      4.22790202	     15.92563471	     37.67322348	    100.46516515	     47.35052523	      5.94209677	     49.74324145	     23.40692641	     64.09251696
      5.65000000	    -19.88634527	     29.92764384	    -43.78040437	      2.13865589	      0.93834430	      0.03128753	     61.35047758	     -0.92679001	     -9.68315858	     18.75735623	     -4.02129744	    -28.16450360	      0.00000000	     55.37262603	      5.53243611	     -0.32568511	     27.00775715	      5.80680547	    -29.09157284	      0.00000000	    -44.03014030	      5.46157384	     -1.18894233	     37.18216849	      4.07895745	     15.88452738	     37.57224794	    100.44464811	     46.89620073	      5.89476439	     49.74641396	     23.26320667	     64.08191837
      5.66666670	    -19.12939951	     29.05364161	    -43.78640025	      2.14571182	      0.93767875	      0.03566113	     59.89203031	     -1.22482030	    -10.48144288	     18.94864537	     -3.82947995	    -28.18915691	      0.00000000	     53.72621400	      5.62907296	     -0.45560313	     26.79794796	      6.53261688	    -28.25345063	      0.00000000	    -44.69440390	      5.98654346	     -1.32565988	     37.08433256	      4.04263268	     15.33569476	     37.36208022	    100.21376906	     46.61228822	      6.16749768	     49.11842970	     22.33580974	     63.90464764
      5.68333330	    -18.74731078	     28.52702246	    -43.61378954	      2.14505731	      0.93952085	      0.03944771	     58.99831889	     -1.45520745	    -11.11487524	     19.17922174	     -3.41433291	    -27.83643334	      0.00000000	     52.66897227	      5.61439090	     -0.87102437	     26.67330331	      7.47883486	    -27.06212322	      0.00000000	    -44.72333079	      6.29273498	     -1.26289565	     36.80772592	      4.02217795	     14.54309119	     36.67100663	     99.90774398	     46.20743422	      6.49666401	     48.11479883	     21.38856848	     63.65699043
